<svg width="83" height="97" viewBox="0 0 83 97" fill="none" xmlns="http://www.w3.org/2000/svg">
<g id="ph:eye-fill">
<path id="Vector" d="M80.1825 47.2723C80.069 46.973 77.3229 39.8534 71.2179 32.7186C63.0832 23.2118 52.8087 18.1875 41.5 18.1875C30.1912 18.1875 19.9167 23.2118 11.7821 32.7186C5.67704 39.8534 2.91794 46.9844 2.81743 47.2723C2.66995 47.66 2.59375 48.0795 2.59375 48.5038C2.59375 48.928 2.66995 49.3476 2.81743 49.7352C2.93091 50.0346 5.67704 57.1504 11.7821 64.2852C19.9167 73.7882 30.1912 78.8125 41.5 78.8125C52.8087 78.8125 63.0832 73.7882 71.2179 64.2852C77.3229 57.1504 80.069 50.0346 80.1825 49.7352C80.33 49.3476 80.4062 48.928 80.4062 48.5038C80.4062 48.0795 80.33 47.66 80.1825 47.2723ZM41.5 63.6562C38.935 63.6562 36.4276 62.7674 34.2949 61.102C32.1622 59.4366 30.5 57.0695 29.5184 54.3C28.5368 51.5306 28.28 48.4832 28.7804 45.5432C29.2808 42.6031 30.516 39.9026 32.3297 37.7829C34.1434 35.6633 36.4542 34.2198 38.9699 33.635C41.4856 33.0502 44.0932 33.3503 46.4629 34.4974C48.8326 35.6446 50.8581 37.5872 52.2831 40.0796C53.7081 42.5721 54.4687 45.5024 54.4687 48.5C54.4687 52.5197 53.1024 56.3747 50.6703 59.2171C48.2381 62.0594 44.9395 63.6562 41.5 63.6562Z" fill="black"/>
</g>
</svg>
